<svg width="1939" height="472" viewBox="0 0 1939 472" fill="none" xmlns="http://www.w3.org/2000/svg">
<path d="M64.0007 39L4.5 140L64.0007 248.5L4.5 364.5L64.0007 458M64.0007 39H290.394L385.692 248.5L290.394 458H64.0007M64.0007 39L122.537 140M64.0007 458L118.191 364.5M118.191 364.5L185.421 248.5L122.537 140M118.191 364.5H233.312L290.394 248.5L233.312 140H129.803H122.537" stroke="white" stroke-width="7"/>
<path d="M440.81 327V306L470.56 299V110L440.81 103V83.75L505.56 82H545.81C568.677 82 586.877 87.1333 600.41 97.4C614.177 107.667 621.06 122.95 621.06 143.25C621.06 173.35 605.894 192.25 575.56 199.95C593.76 204.15 607.294 211.15 616.16 220.95C625.26 230.75 629.81 242.767 629.81 257C629.81 303.667 600.06 327 540.56 327H440.81ZM505.56 213.25V299H542.31C576.144 299 593.06 285.583 593.06 258.75C593.06 241.95 587.927 230.167 577.66 223.4C567.627 216.633 552.344 213.25 531.81 213.25H505.56ZM505.56 110V187H531.81C548.144 187 560.977 183.733 570.31 177.2C579.644 170.433 584.31 160.75 584.31 148.15C584.31 135.317 580.577 125.75 573.11 119.45C565.644 113.15 555.96 110 544.06 110H505.56ZM757.519 306V327H661.269V306L691.019 299V110L661.269 103V83.75L757.519 82V103L727.769 110V299L757.519 306ZM923.933 306V327H817.183V306L852.183 299V110H806.683L797.933 145H775.183V82H965.933V145H943.183L934.433 110H888.933V299L923.933 306ZM1022.08 255.25L1029.08 292C1033.28 294.333 1039 296.433 1046.23 298.3C1053.47 299.933 1060.58 300.75 1067.58 300.75C1074.58 300.75 1081.35 299.933 1087.88 298.3C1094.42 296.433 1100.13 293.867 1105.03 290.6C1109.93 287.333 1113.78 283.483 1116.58 279.05C1119.62 274.383 1121.13 269.133 1121.13 263.3C1121.13 256.533 1119.27 250.933 1115.53 246.5C1111.8 241.833 1106.9 237.867 1100.83 234.6C1095 231.1 1088.35 228.067 1080.88 225.5C1073.42 222.933 1065.83 220.25 1058.13 217.45C1049.97 213.95 1042.03 210.45 1034.33 206.95C1026.87 203.217 1020.1 198.783 1014.03 193.65C1008.2 188.283 1003.53 181.867 1000.03 174.4C996.534 166.933 994.784 157.717 994.784 146.75C994.784 135.083 997 124.933 1001.43 116.3C1006.1 107.667 1012.17 100.55 1019.63 94.95C1027.33 89.35 1036.2 85.2667 1046.23 82.7C1056.5 79.9 1067.23 78.5 1078.43 78.5C1083.57 78.5 1089.05 78.85 1094.88 79.55C1100.72 80.25 1106.43 81.1833 1112.03 82.35C1117.63 83.2833 1122.88 84.45 1127.78 85.85C1132.68 87.0167 1136.88 88.0667 1140.38 89L1151.58 92.5L1149.83 152H1127.08L1115.18 114.55C1108.65 112.45 1102.12 110.933 1095.58 110C1089.28 109.067 1082.75 108.6 1075.98 108.6C1069.22 108.6 1063.03 109.533 1057.43 111.4C1052.07 113.033 1047.4 115.367 1043.43 118.4C1039.7 121.433 1036.78 124.817 1034.68 128.55C1032.58 132.283 1031.53 136.133 1031.53 140.1C1031.77 149.9 1035.03 157.6 1041.33 163.2C1047.63 168.8 1055.45 173.583 1064.78 177.55C1074.12 181.517 1084.15 185.25 1094.88 188.75C1105.85 192.25 1115.88 196.683 1124.98 202.05C1134.32 207.183 1142.02 213.95 1148.08 222.35C1154.38 230.75 1157.53 241.717 1157.53 255.25C1157.53 267.383 1155.2 278.117 1150.53 287.45C1145.87 296.783 1139.45 304.717 1131.28 311.25C1123.12 317.55 1113.43 322.45 1102.23 325.95C1091.03 329.217 1079.02 330.85 1066.18 330.85C1061.05 330.85 1055.45 330.5 1049.38 329.8C1043.55 329.1 1037.72 328.167 1031.88 327C1026.28 326.067 1021.03 325.017 1016.13 323.85C1011.23 322.45 1007.15 321.167 1003.88 320L994.084 316.5V255.25H1022.08ZM1166.5 327V306L1195.2 299.35L1275 83.75L1310 82L1387.7 299.35L1416.75 306V327H1315.25V306L1347.8 299.35L1334.5 260.5H1243.5L1229.85 299.35L1262.75 306V327H1166.5ZM1289.7 127.15L1252.95 232.5H1325.05L1289.7 127.15ZM1574.11 110H1498.86V188.75H1579.36V216.75H1498.86V299L1533.86 306V327H1432.36V306L1462.11 299V110L1432.36 103V83.75L1498.86 82H1605.61V139.75H1582.86L1574.11 110ZM1780.72 110H1705.47V185.25H1785.97V213.25H1705.47V299H1785.97L1792.97 264H1815.72V327H1638.97V306L1668.72 299V110L1638.97 103V83.75L1705.47 82H1812.22V141.5H1789.47L1780.72 110Z" fill="white"/>
<path d="M447.56 444.36H457.105C462.583 444.36 466.844 442.479 469.887 438.716C472.986 434.953 474.535 429.282 474.535 421.701C474.535 414.065 473.041 408.476 470.053 404.935C467.065 401.338 462.888 399.54 457.52 399.54H447.56V444.36ZM431.79 451V446.02L438.845 444.36V399.54L431.79 397.88V393.315L447.56 392.9H457.935C462.03 392.9 465.682 393.536 468.891 394.809C472.156 396.026 474.895 397.852 477.108 400.287C479.377 402.666 481.092 405.627 482.254 409.168C483.472 412.654 484.08 416.666 484.08 421.203C484.08 425.74 483.416 429.835 482.088 433.487C480.816 437.139 478.99 440.265 476.61 442.866C474.231 445.467 471.354 447.486 467.978 448.925C464.603 450.308 460.84 451 456.69 451H431.79ZM501.549 387.505C505.146 387.505 506.944 389.58 506.944 393.73C506.944 395.445 506.336 396.773 505.118 397.714C503.901 398.655 502.601 399.125 501.217 399.125C499.723 399.125 498.506 398.627 497.565 397.631C496.625 396.58 496.154 395.141 496.154 393.315C496.154 391.489 496.652 390.078 497.648 389.082C498.7 388.031 500 387.505 501.549 387.505ZM506.114 407.01V444.36L512.339 446.435V451H490.759V446.435L497.814 444.36V413.65L490.759 411.99V407.425L506.114 407.01ZM537.651 437.72C535.216 437.72 533.141 437.471 531.426 436.973L531.011 444.775H543.876C549.299 444.775 553.421 445.799 556.243 447.846C559.065 449.893 560.476 452.992 560.476 457.142C560.476 461.624 558.65 465.165 554.998 467.766C551.346 470.422 545.979 471.75 538.896 471.75C525.616 471.75 518.976 467.738 518.976 459.715C518.976 456.229 520.83 453.269 524.537 450.834C525.422 450.281 526.474 449.783 527.691 449.34C526.197 449.119 524.98 448.593 524.039 447.763C523.154 446.933 522.711 445.992 522.711 444.941C522.711 443.115 523.79 440.459 525.948 436.973L527.027 435.23C526.529 435.064 525.837 434.566 524.952 433.736C524.122 432.906 523.43 432.076 522.877 431.246C521.383 428.922 520.636 425.962 520.636 422.365C520.636 417.108 522.268 413.097 525.533 410.33C528.853 407.563 533.307 406.18 538.896 406.18C541.995 406.18 544.457 406.567 546.283 407.342L547.196 407.757L561.721 407.425V411.99L553.67 413.152C555.164 415.144 555.911 417.938 555.911 421.535C555.911 426.958 554.279 431.025 551.014 433.736C547.749 436.392 543.295 437.72 537.651 437.72ZM541.801 451H532.671C532.394 451.111 531.841 451.443 531.011 451.996C530.236 452.605 529.628 453.158 529.185 453.656C527.912 455.095 527.276 456.699 527.276 458.47C527.276 461.181 528.327 463.035 530.43 464.031C532.588 465.027 535.825 465.525 540.141 465.525C548.441 465.525 552.591 462.897 552.591 457.64C552.591 455.095 551.678 453.352 549.852 452.411C548.081 451.47 545.398 451 541.801 451ZM538.481 411.99C532.118 411.99 528.936 415.31 528.936 421.95C528.936 424.993 529.711 427.428 531.26 429.254C532.809 431.025 535.05 431.91 537.983 431.91C541.358 431.91 543.793 431.135 545.287 429.586C546.836 427.981 547.611 425.436 547.611 421.95C547.611 415.31 544.568 411.99 538.481 411.99ZM577.903 387.505C581.499 387.505 583.298 389.58 583.298 393.73C583.298 395.445 582.689 396.773 581.472 397.714C580.254 398.655 578.954 399.125 577.571 399.125C576.077 399.125 574.859 398.627 573.919 397.631C572.978 396.58 572.508 395.141 572.508 393.315C572.508 391.489 573.006 390.078 574.002 389.082C575.053 388.031 576.353 387.505 577.903 387.505ZM582.468 407.01V444.36L588.693 446.435V451H567.113V446.435L574.168 444.36V413.65L567.113 411.99V407.425L582.468 407.01ZM609.854 395.307V407.425H621.889V413.65H609.854V440.293C609.854 443.668 611.238 445.356 614.004 445.356C615.775 445.356 617.933 444.664 620.478 443.281L622.719 447.68C618.957 450.447 615.083 451.83 611.099 451.83C608.277 451.83 605.981 450.917 604.21 449.091C602.44 447.21 601.554 444.111 601.554 439.795V413.65H593.254V408.255L601.554 407.425V396.967L609.854 395.307ZM630.566 409.5C636.542 407.287 642.02 406.18 647 406.18C651.869 406.18 655.604 407.176 658.205 409.168C660.805 411.105 662.106 414.397 662.106 419.045V444.36L668.746 446.02V450.585L655.881 451L654.138 445.19C649.711 449.617 645.34 451.83 641.024 451.83C636.708 451.83 633.471 450.751 631.313 448.593C629.155 446.435 628.076 443.364 628.076 439.38C628.076 430.803 634.439 426.515 647.166 426.515H653.806V419.875C653.806 414.895 651.177 412.405 645.921 412.405C642.933 412.405 640.47 412.709 638.534 413.318L637.538 413.65L636.376 419.875H630.981L630.566 409.5ZM653.806 431.91H647.996C643.846 431.91 640.885 432.463 639.115 433.57C637.399 434.621 636.542 436.281 636.542 438.55C636.542 440.708 637.04 442.368 638.036 443.53C639.087 444.637 640.581 445.19 642.518 445.19C643.458 445.19 644.399 445.024 645.34 444.692C646.336 444.36 647.276 443.945 648.162 443.447C649.102 442.949 649.932 442.423 650.652 441.87C651.371 441.261 651.952 440.708 652.395 440.21L653.806 438.55V431.91ZM688.867 387.09V444.36L697.167 446.435V451H673.346V446.435L680.401 444.36V393.73L673.346 392.07V387.505L688.867 387.09ZM717.158 451V446.02L723.964 444.443L742.888 393.315L751.188 392.9L769.614 444.443L776.503 446.02V451H752.433V446.02L760.152 444.443L756.998 435.23H735.418L732.181 444.443L739.983 446.02V451H717.158ZM746.374 403.607L737.659 428.59H754.757L746.374 403.607ZM780.703 437.72H786.513L787.426 444.858C787.98 445.079 788.837 445.273 789.999 445.439C791.217 445.55 792.406 445.605 793.568 445.605C797.165 445.605 799.766 445.079 801.37 444.028C803.03 442.921 803.86 441.261 803.86 439.048C803.86 437.554 803.279 436.364 802.117 435.479C801.011 434.594 799.6 433.847 797.884 433.238C796.169 432.629 794.288 432.021 792.24 431.412C790.248 430.803 788.395 430.029 786.679 429.088C784.964 428.092 783.525 426.819 782.363 425.27C781.257 423.721 780.703 421.673 780.703 419.128C780.703 414.978 782.087 411.824 784.853 409.666C787.62 407.453 791.3 406.291 795.892 406.18C797.829 406.235 799.793 406.401 801.785 406.678C803.833 406.899 805.908 407.342 808.011 408.006L810.085 408.67L809.836 419.875H804.441L803.113 413.401C802.671 413.235 801.813 413.041 800.541 412.82C799.268 412.543 797.912 412.405 796.473 412.405C795.477 412.405 794.537 412.488 793.651 412.654C792.766 412.82 791.964 413.097 791.244 413.484C790.58 413.871 790.027 414.425 789.584 415.144C789.197 415.863 789.003 416.749 789.003 417.8C789.003 419.405 789.557 420.677 790.663 421.618C791.825 422.503 793.264 423.278 794.979 423.942C796.695 424.606 798.548 425.242 800.541 425.851C802.588 426.46 804.469 427.262 806.184 428.258C807.9 429.199 809.311 430.416 810.417 431.91C811.579 433.404 812.16 435.368 812.16 437.803C812.16 440.127 811.662 442.174 810.666 443.945C809.67 445.716 808.315 447.21 806.599 448.427C804.939 449.589 802.975 450.447 800.706 451C798.493 451.609 796.114 451.913 793.568 451.913C792.628 451.913 791.632 451.858 790.58 451.747C789.584 451.692 788.588 451.581 787.592 451.415C786.596 451.304 785.656 451.166 784.77 451C783.94 450.834 783.249 450.668 782.695 450.502L780.786 450.004L780.703 437.72ZM819.772 437.72H825.582L826.495 444.858C827.048 445.079 827.906 445.273 829.068 445.439C830.285 445.55 831.475 445.605 832.637 445.605C836.234 445.605 838.834 445.079 840.439 444.028C842.099 442.921 842.929 441.261 842.929 439.048C842.929 437.554 842.348 436.364 841.186 435.479C840.079 434.594 838.668 433.847 836.953 433.238C835.238 432.629 833.356 432.021 831.309 431.412C829.317 430.803 827.463 430.029 825.748 429.088C824.033 428.092 822.594 426.819 821.432 425.27C820.325 423.721 819.772 421.673 819.772 419.128C819.772 414.978 821.155 411.824 823.922 409.666C826.689 407.453 830.368 406.291 834.961 406.18C836.898 406.235 838.862 406.401 840.854 406.678C842.901 406.899 844.976 407.342 847.079 408.006L849.154 408.67L848.905 419.875H843.51L842.182 413.401C841.739 413.235 840.882 413.041 839.609 412.82C838.336 412.543 836.981 412.405 835.542 412.405C834.546 412.405 833.605 412.488 832.72 412.654C831.835 412.82 831.032 413.097 830.313 413.484C829.649 413.871 829.096 414.425 828.653 415.144C828.266 415.863 828.072 416.749 828.072 417.8C828.072 419.405 828.625 420.677 829.732 421.618C830.894 422.503 832.333 423.278 834.048 423.942C835.763 424.606 837.617 425.242 839.609 425.851C841.656 426.46 843.538 427.262 845.253 428.258C846.968 429.199 848.379 430.416 849.486 431.91C850.648 433.404 851.229 435.368 851.229 437.803C851.229 440.127 850.731 442.174 849.735 443.945C848.739 445.716 847.383 447.21 845.668 448.427C844.008 449.589 842.044 450.447 839.775 451C837.562 451.609 835.182 451.913 832.637 451.913C831.696 451.913 830.7 451.858 829.649 451.747C828.653 451.692 827.657 451.581 826.661 451.415C825.665 451.304 824.724 451.166 823.839 451C823.009 450.834 822.317 450.668 821.764 450.502L819.855 450.004L819.772 437.72ZM895.692 430.084L867.057 430.25C867.057 434.787 868.136 438.412 870.294 441.123C872.508 443.834 875.44 445.19 879.092 445.19C880.31 445.19 881.527 445.079 882.744 444.858C883.962 444.637 885.096 444.36 886.147 444.028C887.254 443.696 888.25 443.336 889.135 442.949C890.021 442.506 890.768 442.091 891.376 441.704L893.036 440.625L895.941 444.941C894.06 446.435 892.317 447.625 890.712 448.51C889.163 449.34 887.309 450.115 885.151 450.834C883.049 451.498 880.752 451.83 878.262 451.83C871.733 451.83 866.781 449.866 863.405 445.937C860.03 441.953 858.342 436.53 858.342 429.669C858.342 426.238 858.84 423.084 859.836 420.207C860.832 417.33 862.216 414.867 863.986 412.82C865.812 410.717 867.97 409.085 870.46 407.923C872.95 406.761 875.689 406.18 878.677 406.18C890.297 406.18 896.107 412.682 896.107 425.685L895.692 430.084ZM867.389 424.025H887.309C887.309 420.65 886.59 417.911 885.151 415.808C883.713 413.705 881.389 412.654 878.179 412.654C875.025 412.654 872.508 413.733 870.626 415.891C868.745 417.994 867.666 420.705 867.389 424.025ZM917.295 395.307V407.425H929.33V413.65H917.295V440.293C917.295 443.668 918.678 445.356 921.445 445.356C923.216 445.356 925.374 444.664 927.919 443.281L930.16 447.68C926.397 450.447 922.524 451.83 918.54 451.83C915.718 451.83 913.422 450.917 911.651 449.091C909.88 447.21 908.995 444.111 908.995 439.795V413.65H900.695V408.255L908.995 407.425V396.967L917.295 395.307ZM935.599 437.72H941.409L942.322 444.858C942.875 445.079 943.733 445.273 944.895 445.439C946.112 445.55 947.302 445.605 948.464 445.605C952.061 445.605 954.661 445.079 956.266 444.028C957.926 442.921 958.756 441.261 958.756 439.048C958.756 437.554 958.175 436.364 957.013 435.479C955.906 434.594 954.495 433.847 952.78 433.238C951.065 432.629 949.183 432.021 947.136 431.412C945.144 430.803 943.29 430.029 941.575 429.088C939.86 428.092 938.421 426.819 937.259 425.27C936.152 423.721 935.599 421.673 935.599 419.128C935.599 414.978 936.982 411.824 939.749 409.666C942.516 407.453 946.195 406.291 950.788 406.18C952.725 406.235 954.689 406.401 956.681 406.678C958.728 406.899 960.803 407.342 962.906 408.006L964.981 408.67L964.732 419.875H959.337L958.009 413.401C957.566 413.235 956.709 413.041 955.436 412.82C954.163 412.543 952.808 412.405 951.369 412.405C950.373 412.405 949.432 412.488 948.547 412.654C947.662 412.82 946.859 413.097 946.14 413.484C945.476 413.871 944.923 414.425 944.48 415.144C944.093 415.863 943.899 416.749 943.899 417.8C943.899 419.405 944.452 420.677 945.559 421.618C946.721 422.503 948.16 423.278 949.875 423.942C951.59 424.606 953.444 425.242 955.436 425.851C957.483 426.46 959.365 427.262 961.08 428.258C962.795 429.199 964.206 430.416 965.313 431.91C966.475 433.404 967.056 435.368 967.056 437.803C967.056 440.127 966.558 442.174 965.562 443.945C964.566 445.716 963.21 447.21 961.495 448.427C959.835 449.589 957.871 450.447 955.602 451C953.389 451.609 951.009 451.913 948.464 451.913C947.523 451.913 946.527 451.858 945.476 451.747C944.48 451.692 943.484 451.581 942.488 451.415C941.492 451.304 940.551 451.166 939.666 451C938.836 450.834 938.144 450.668 937.591 450.502L935.682 450.004L935.599 437.72ZM1016.12 446.02V451H993.298V446.02L1000.35 444.36V399.54L993.298 397.88V393.315L1016.12 392.9V397.88L1009.07 399.54V444.36L1016.12 446.02ZM1036.5 407.01L1037.24 412.903C1037.8 412.46 1038.57 411.852 1039.57 411.077C1040.56 410.302 1041.73 409.555 1043.05 408.836C1044.44 408.117 1045.93 407.508 1047.54 407.01C1049.2 406.457 1050.91 406.18 1052.68 406.18C1057.16 406.18 1060.48 407.508 1062.64 410.164C1064.86 412.765 1065.96 416.417 1065.96 421.12V444.36L1072.19 446.435V451H1052.27V446.435L1057.66 444.36V421.95C1057.66 418.962 1057.08 416.776 1055.92 415.393C1054.76 413.954 1052.99 413.235 1050.61 413.235C1049.45 413.235 1048.28 413.401 1047.12 413.733C1046.01 414.01 1044.96 414.397 1043.97 414.895C1043.03 415.393 1042.17 415.946 1041.39 416.555C1040.67 417.108 1040.07 417.662 1039.57 418.215L1038.16 419.875V444.36L1043.55 446.435V451H1022.8V446.435L1029.86 444.36V413.65L1022.8 411.99V407.425L1036.5 407.01ZM1093.77 407.01V411.99L1087.96 412.82L1097.84 443.53L1107.8 413.235L1102.07 411.99V407.425L1120.66 407.01V411.99L1116.1 412.82L1101.99 451H1092.86L1079.25 413.235L1075.1 411.99V407.425L1093.77 407.01ZM1161.71 430.084L1133.08 430.25C1133.08 434.787 1134.16 438.412 1136.32 441.123C1138.53 443.834 1141.46 445.19 1145.11 445.19C1146.33 445.19 1147.55 445.079 1148.77 444.858C1149.98 444.637 1151.12 444.36 1152.17 444.028C1153.28 443.696 1154.27 443.336 1155.16 442.949C1156.04 442.506 1156.79 442.091 1157.4 441.704L1159.06 440.625L1161.96 444.941C1160.08 446.435 1158.34 447.625 1156.73 448.51C1155.18 449.34 1153.33 450.115 1151.17 450.834C1149.07 451.498 1146.77 451.83 1144.28 451.83C1137.75 451.83 1132.8 449.866 1129.43 445.937C1126.05 441.953 1124.36 436.53 1124.36 429.669C1124.36 426.238 1124.86 423.084 1125.86 420.207C1126.85 417.33 1128.24 414.867 1130.01 412.82C1131.83 410.717 1133.99 409.085 1136.48 407.923C1138.97 406.761 1141.71 406.18 1144.7 406.18C1156.32 406.18 1162.13 412.682 1162.13 425.685L1161.71 430.084ZM1133.41 424.025H1153.33C1153.33 420.65 1152.61 417.911 1151.17 415.808C1149.73 413.705 1147.41 412.654 1144.2 412.654C1141.05 412.654 1138.53 413.733 1136.65 415.891C1134.77 417.994 1133.69 420.705 1133.41 424.025ZM1168.87 437.72H1174.68L1175.6 444.858C1176.15 445.079 1177.01 445.273 1178.17 445.439C1179.39 445.55 1180.58 445.605 1181.74 445.605C1185.34 445.605 1187.94 445.079 1189.54 444.028C1191.2 442.921 1192.03 441.261 1192.03 439.048C1192.03 437.554 1191.45 436.364 1190.29 435.479C1189.18 434.594 1187.77 433.847 1186.06 433.238C1184.34 432.629 1182.46 432.021 1180.41 431.412C1178.42 430.803 1176.57 430.029 1174.85 429.088C1173.14 428.092 1171.7 426.819 1170.53 425.27C1169.43 423.721 1168.87 421.673 1168.87 419.128C1168.87 414.978 1170.26 411.824 1173.02 409.666C1175.79 407.453 1179.47 406.291 1184.06 406.18C1186 406.235 1187.96 406.401 1189.96 406.678C1192 406.899 1194.08 407.342 1196.18 408.006L1198.26 408.67L1198.01 419.875H1192.61L1191.28 413.401C1190.84 413.235 1189.98 413.041 1188.71 412.82C1187.44 412.543 1186.08 412.405 1184.64 412.405C1183.65 412.405 1182.71 412.488 1181.82 412.654C1180.94 412.82 1180.13 413.097 1179.42 413.484C1178.75 413.871 1178.2 414.425 1177.76 415.144C1177.37 415.863 1177.17 416.749 1177.17 417.8C1177.17 419.405 1177.73 420.677 1178.83 421.618C1180 422.503 1181.44 423.278 1183.15 423.942C1184.87 424.606 1186.72 425.242 1188.71 425.851C1190.76 426.46 1192.64 427.262 1194.36 428.258C1196.07 429.199 1197.48 430.416 1198.59 431.91C1199.75 433.404 1200.33 435.368 1200.33 437.803C1200.33 440.127 1199.83 442.174 1198.84 443.945C1197.84 445.716 1196.49 447.21 1194.77 448.427C1193.11 449.589 1191.15 450.447 1188.88 451C1186.66 451.609 1184.28 451.913 1181.74 451.913C1180.8 451.913 1179.8 451.858 1178.75 451.747C1177.76 451.692 1176.76 451.581 1175.76 451.415C1174.77 451.304 1173.83 451.166 1172.94 451C1172.11 450.834 1171.42 450.668 1170.87 450.502L1168.96 450.004L1168.87 437.72ZM1222.38 395.307V407.425H1234.42V413.65H1222.38V440.293C1222.38 443.668 1223.77 445.356 1226.53 445.356C1228.31 445.356 1230.46 444.664 1233.01 443.281L1235.25 447.68C1231.49 450.447 1227.61 451.83 1223.63 451.83C1220.81 451.83 1218.51 450.917 1216.74 449.091C1214.97 447.21 1214.08 444.111 1214.08 439.795V413.65H1205.78V408.255L1214.08 407.425V396.967L1222.38 395.307ZM1253.89 407.01L1254.63 412.903C1255.41 412.184 1256.35 411.437 1257.45 410.662C1258.56 409.832 1259.78 409.085 1261.11 408.421C1262.43 407.757 1263.82 407.231 1265.26 406.844C1266.75 406.401 1268.22 406.18 1269.66 406.18C1275.24 406.18 1279.09 408.559 1281.19 413.318C1282.19 412.322 1283.35 411.409 1284.68 410.579C1286.01 409.694 1287.36 408.919 1288.75 408.255C1290.18 407.591 1291.57 407.093 1292.9 406.761C1294.28 406.374 1295.52 406.18 1296.63 406.18C1305.21 406.18 1309.5 411.16 1309.5 421.12V444.36L1315.72 446.435V451H1295.8V446.435L1301.2 444.36V421.95C1301.2 418.907 1300.67 416.693 1299.62 415.31C1298.57 413.927 1296.85 413.235 1294.47 413.235C1293.31 413.235 1292.18 413.401 1291.07 413.733C1290.02 414.01 1289.02 414.397 1288.08 414.895C1287.14 415.393 1286.31 415.946 1285.59 416.555C1284.87 417.108 1284.29 417.662 1283.85 418.215L1282.52 419.875V444.36L1287.92 446.435V451H1268.83V446.435L1274.22 444.36V421.95C1274.22 418.907 1273.7 416.693 1272.64 415.31C1271.59 413.927 1269.88 413.235 1267.5 413.235C1266.34 413.235 1265.2 413.401 1264.09 413.733C1263.04 414.01 1262.05 414.397 1261.11 414.895C1260.17 415.393 1259.34 415.946 1258.62 416.555C1257.9 417.108 1257.32 417.662 1256.87 418.215L1255.55 419.875V444.36L1260.94 446.435V451H1240.19V446.435L1247.25 444.36V413.65L1240.19 411.99V407.425L1253.89 407.01ZM1358.92 430.084L1330.28 430.25C1330.28 434.787 1331.36 438.412 1333.52 441.123C1335.74 443.834 1338.67 445.19 1342.32 445.19C1343.54 445.19 1344.75 445.079 1345.97 444.858C1347.19 444.637 1348.32 444.36 1349.37 444.028C1350.48 443.696 1351.48 443.336 1352.36 442.949C1353.25 442.506 1354 442.091 1354.6 441.704L1356.26 440.625L1359.17 444.941C1357.29 446.435 1355.54 447.625 1353.94 448.51C1352.39 449.34 1350.54 450.115 1348.38 450.834C1346.28 451.498 1343.98 451.83 1341.49 451.83C1334.96 451.83 1330.01 449.866 1326.63 445.937C1323.26 441.953 1321.57 436.53 1321.57 429.669C1321.57 426.238 1322.07 423.084 1323.06 420.207C1324.06 417.33 1325.44 414.867 1327.21 412.82C1329.04 410.717 1331.2 409.085 1333.69 407.923C1336.18 406.761 1338.92 406.18 1341.9 406.18C1353.52 406.18 1359.33 412.682 1359.33 425.685L1358.92 430.084ZM1330.62 424.025H1350.54C1350.54 420.65 1349.82 417.911 1348.38 415.808C1346.94 413.705 1344.62 412.654 1341.41 412.654C1338.25 412.654 1335.74 413.733 1333.85 415.891C1331.97 417.994 1330.89 420.705 1330.62 424.025ZM1379.28 407.01L1380.02 412.903C1380.58 412.46 1381.35 411.852 1382.35 411.077C1383.34 410.302 1384.51 409.555 1385.83 408.836C1387.22 408.117 1388.71 407.508 1390.32 407.01C1391.98 406.457 1393.69 406.18 1395.46 406.18C1399.94 406.18 1403.26 407.508 1405.42 410.164C1407.64 412.765 1408.74 416.417 1408.74 421.12V444.36L1414.97 446.435V451H1395.05V446.435L1400.44 444.36V421.95C1400.44 418.962 1399.86 416.776 1398.7 415.393C1397.54 413.954 1395.77 413.235 1393.39 413.235C1392.23 413.235 1391.06 413.401 1389.9 413.733C1388.79 414.01 1387.74 414.397 1386.75 414.895C1385.81 415.393 1384.95 415.946 1384.17 416.555C1383.46 417.108 1382.85 417.662 1382.35 418.215L1380.94 419.875V444.36L1386.33 446.435V451H1365.58V446.435L1372.64 444.36V413.65L1365.58 411.99V407.425L1379.28 407.01ZM1435.72 395.307V407.425H1447.76V413.65H1435.72V440.293C1435.72 443.668 1437.1 445.356 1439.87 445.356C1441.64 445.356 1443.8 444.664 1446.34 443.281L1448.59 447.68C1444.82 450.447 1440.95 451.83 1436.97 451.83C1434.14 451.83 1431.85 450.917 1430.08 449.091C1428.31 447.21 1427.42 444.111 1427.42 439.795V413.65H1419.12V408.255L1427.42 407.425V396.967L1435.72 395.307Z" fill="white"/>
</svg>
